# xmcd
#
# Track frame offsets:
#	150
#	18992
#	38200
#	51672
#	68701
#	83074
#	102129
#	120395
#	136642
#	155471
#	174680
#	188144
#	205159
#	219498
#	238480
#	256723
#	284317
#
# Disc length: 3803 seconds
#
# Revision: 1
# Processed by: cddbd v1.5.2PL0 Copyright (c) Steve Scherf et al.
# Submitted via: audiograbber 1.83.01
#
DISCID=ec0ed911
DTITLE=POWER PICKS - SC3380
DYEAR=1900
DGENRE=Country
TTITLE0=MARK WILLS - AND THE CROWD GOES WILD
TTITLE1=JIMMY WAYNE - I LOVE YOU THIS MUCH
TTITLE2=TERRI CLARK - I WANNA DO IT ALL
TTITLE3=GEORGE STRAIT - COWBOYS LIKE US
TTITLE4=RANDY TRAVIS - PRAY FOR THE FISH
TTITLE5=LONESTAR - WALKING IN MEMPHIS
TTITLE6=CRAIG MORGAN - EVERY FRIDAY AFTERNOON
TTITLE7=DUSTY DRAKE - SMALLER PIECES
TTITLE8=MARK WILLS - V-AND THE CROWD GOES WILD
TTITLE9=JIMMY WAYNE - V-I LOVE YOU THIS MUCH
TTITLE10=TERRI CLARK - V-I WANNA DO IT ALL
TTITLE11=GEORGE STRAIT - V-COWBOYS LIKE US
TTITLE12=RANDY TRAVIS - V-PRAY FOR THE FISH
TTITLE13=LONESTAR - V-WALKING IN MEMPHIS
TTITLE14=CRAIG MORGAN - V-EVERY FRIDAY AFTERNOON
TTITLE15=DUSTY DRAKE - V-SMALLER PIECES
TTITLE16=DATA - Data Track
EXTD=
EXTT0=
EXTT1=
EXTT2=
EXTT3=
EXTT4=
EXTT5=
EXTT6=
EXTT7=
EXTT8=
EXTT9=
EXTT10=
EXTT11=
EXTT12=
EXTT13=
EXTT14=
EXTT15=
EXTT16=
PLAYORDER=
